<svg id="Layer_1" data-name="Layer 1" xmlns="http://www.w3.org/2000/svg" viewBox="0 0 830 396"><title>Beep_games</title><path d="M254.9,192.7h22.17v14.68H254.9v30.1h27.9v14.68h-44V149.39h44v14.69H254.9Z"/><path d="M309,192.7h22.17v14.68H309v30.1h27.9v14.68h-44V149.39h44v14.69H309Z"/><path d="M394.72,174.79v13.36c0,16.44-7.93,25.4-24.08,25.4H363v38.61H346.86V149.39h23.79C386.8,149.39,394.72,158.35,394.72,174.79ZM363,164.08v34.79h7.64c5.13,0,7.93-2.35,7.93-9.69V173.76c0-7.35-2.79-9.69-7.93-9.69Z"/><path d="M426.46,194.91h22.61v32.59c0,16.45-8.22,25.85-24.08,25.85s-24.08-9.4-24.08-25.85V174.06c0-16.44,8.22-25.84,24.08-25.84s24.08,9.4,24.08,25.84v10H433.8V173c0-7.34-3.23-10.13-8.37-10.13s-8.37,2.79-8.37,10.13v55.49c0,7.35,3.23,10,8.37,10s8.37-2.64,8.37-10V209.59h-7.34Z"/><path d="M511.66,252.16h-16.3l-2.79-18.64H472.75L470,252.16H455.13l16.44-102.77h23.64Zm-36.85-32.59h15.56l-7.78-52Z"/><path d="M553.38,222.36l11-73h22.46V252.16H571.58v-73.7l-11.15,73.7H545.16l-12-72.67v72.67H519V149.39h22.46Z"/><path d="M614.79,192.7H637v14.68H614.79v30.1h27.9v14.68h-44V149.39h44v14.69h-27.9Z"/><path d="M674.43,148.22c15.71,0,23.78,9.4,23.78,25.84v3.23H682.94V173c0-7.34-2.93-10.13-8.08-10.13s-8.07,2.79-8.07,10.13c0,21.14,31.56,25.1,31.56,54.46,0,16.45-8.22,25.85-24.08,25.85s-24.08-9.4-24.08-25.85v-6.31h15.27v7.34c0,7.35,3.23,10,8.37,10s8.37-2.64,8.37-10c0-21.14-31.57-25.1-31.57-54.46C650.64,157.61,658.72,148.22,674.43,148.22Z"/><path d="M208.24,116.83v11.24c0,32.37-9.91,53.06-31.93,63.4,26.53,10.34,36.87,34.18,36.87,67.47v25.63c0,48.56-25.63,74.65-75.1,74.65H60.27V44.41h74.66C186.2,44.41,208.24,68.25,208.24,116.83Zm-98.5-27.45v83.21h19.35c18.44,0,29.68-8.11,29.68-33.29V121.77c0-22.48-7.65-32.39-25.19-32.39Zm0,128.18v96.69h28.34c16.64,0,25.63-7.65,25.63-31V255.79c0-29.24-9.45-38.23-31.93-38.23Z"/><path d="M227.25,92.55h424a104,104,0,1,1,0,208h-424v29h424a133,133,0,1,0,0-266h-424v29Z"/></svg>